<?xml version="1.0" encoding="utf-8"?>
<!-- Generator: Adobe Illustrator 26.3.1, SVG Export Plug-In . SVG Version: 6.00 Build 0)  -->
<svg version="1.1" id="Ebene_1" xmlns="http://www.w3.org/2000/svg" xmlns:xlink="http://www.w3.org/1999/xlink" x="0px" y="0px"
	 viewBox="0 0 344.3 114" style="enable-background:new 0 0 344.3 114;" xml:space="preserve">
<style type="text/css">
	.Grün_x0020_bogenförmig{fill:url(#SVGID_1_);stroke:#FFFFFF;stroke-width:0.25;stroke-miterlimit:1;}
	.st0{fill:#1D1D1B;}
	.st1{fill:#76B82A;}
	.st2{font-family:'Parka-Regular';}
	.st3{font-size:16.2496px;}
</style>
<linearGradient id="SVGID_1_" gradientUnits="userSpaceOnUse" x1="59.1546" y1="183.4051" x2="59.8617" y2="182.698">
	<stop  offset="0" style="stop-color:#1EA038"/>
	<stop  offset="0.9831" style="stop-color:#23391F"/>
</linearGradient>
<polygon class="st0" points="30.4,30.4 46.4,30.4 46.4,34.4 35,34.4 35,43.7 45.7,43.7 45.7,47.6 35,47.6 35,60.8 30.4,60.8 "/>
<polygon class="st0" points="52.4,30.4 57.1,30.4 57.1,42.9 68.2,42.9 68.2,30.4 72.8,30.4 72.8,60.8 68.2,60.8 68.2,46.7 
	57.1,46.7 57.1,60.8 52.4,60.8 "/>
<polygon class="st1" points="87.6,30.4 87.6,44.6 87.6,69.6 87.6,83.7 92,83.7 92,69.6 92,44.6 92,30.4 "/>
<path class="st0" d="M159.1,30.4H154L144,60.8h4.6l2.4-7.8h10.3l2.5,7.8h5.2L159.1,30.4z M152.2,49.4l3.7-11.4l0.4-2.7l0.4,2.7
	l3.6,11.4H152.2z"/>
<path class="st0" d="M129.9,29.8c-6.6,0-11.8,3.3-11.8,16c0,12.8,4.9,15.6,11.8,15.6c6.8,0,11.7-2.8,11.7-15.6
	C141.6,33.1,136.7,29.8,129.9,29.8z M129.9,57.5c-5.6,0-6.9-4.7-6.9-11.8c0-7.5,1.5-12.1,6.9-12.1c5.5,0,6.9,4.6,6.9,12.1
	C136.8,52.8,135.5,57.5,129.9,57.5z"/>
<polygon class="st0" points="172.9,30.4 179.3,30.4 189.3,51.4 190.5,55.7 190.2,51.3 190.2,30.4 194.8,30.4 194.8,60.8 188.8,60.8 
	178.6,39.6 177.2,35.2 177.5,39.6 177.5,60.8 172.9,60.8 "/>
<polygon class="st0" points="202.2,30.4 208.6,30.4 218.6,51.4 219.8,55.7 219.5,51.3 219.5,30.4 224.1,30.4 224.1,60.8 218.1,60.8 
	207.9,39.6 206.4,35.2 206.8,39.6 206.8,60.8 202.2,60.8 "/>
<polygon class="st0" points="231.5,30.4 248.2,30.4 248.2,34.4 236.1,34.4 236.1,43.1 247.1,43.1 247.1,47 236.1,47 236.1,56.6 
	248.6,56.6 248.6,60.8 231.5,60.8 "/>
<path class="st0" d="M254.2,49.7V30.4h4.7v19.2c0,6.1,1,7.6,5,7.6c1.4,0,2.9-0.4,3.8-0.7l3.3-1.2V30.4h4.6v25.5
	c0,1.6,0.3,4.9,0.3,4.9h-3.3c-0.4-0.5-0.7-1.2-1.1-2l-4,1.7c-1.2,0.5-3.1,1-4.7,1C256,61.4,254.2,58.1,254.2,49.7z"/>
<polygon class="st0" points="284.6,30.4 291.4,30.4 297.6,52.7 298.2,56.4 298.8,52.7 304.8,30.4 311.4,30.4 313.9,60.8 309.1,60.8 
	307.5,39.6 307.3,34.8 306.5,39.6 300.5,60.8 295.5,60.8 289.6,39.6 288.7,34.8 288.5,39.6 286.9,60.8 282.1,60.8 "/>
<path d="M106.8,30.4v24.1c0,4.7-2.4,5.8-5.1,7l1.4,3.5c4-1.3,8.4-2.9,8.4-10V30.4H106.8z"/>
<text transform="matrix(1 0 0 1 105.3841 83.6964)" class="st1 st2 st3">Business Informatics</text>
</svg>
