<?xml version="1.0" encoding="utf-8"?>
<!-- Generator: Adobe Illustrator 25.4.1, SVG Export Plug-In . SVG Version: 6.00 Build 0)  -->
<svg version="1.1" id="Ebene_1" xmlns="http://www.w3.org/2000/svg" xmlns:xlink="http://www.w3.org/1999/xlink" x="0px" y="0px"
	 viewBox="0 0 344.3 114" style="enable-background:new 0 0 344.3 114;" xml:space="preserve">
<style type="text/css">
	.Grün_x0020_bogenförmig{fill:url(#SVGID_1_);stroke:#FFFFFF;stroke-width:0.25;stroke-miterlimit:1;}
	.st0{fill:#1D1E1B;}
	.st1{fill:#76B82A;}
</style>
<linearGradient id="SVGID_1_" gradientUnits="userSpaceOnUse" x1="59.1546" y1="183.4051" x2="59.8617" y2="182.698">
	<stop  offset="0" style="stop-color:#1EA138"/>
	<stop  offset="0.9831" style="stop-color:#23391F"/>
</linearGradient>
<polygon class="st0" points="30.4,30.4 46.4,30.4 46.4,34.4 35,34.4 35,43.7 45.7,43.7 45.7,47.6 35,47.6 35,60.8 30.4,60.8 "/>
<polygon class="st0" points="52.4,30.4 57.1,30.4 57.1,42.9 68.2,42.9 68.2,30.4 72.8,30.4 72.8,60.8 68.2,60.8 68.2,46.7 
	57.1,46.7 57.1,60.8 52.4,60.8 "/>
<polygon class="st1" points="87.6,30.4 87.6,44.6 87.6,69.6 87.6,83.7 92,83.7 92,69.6 92,44.6 92,30.4 "/>
<path class="st0" d="M159.1,30.4H154L144,60.8h4.6l2.4-7.8h10.3l2.5,7.8h5.2L159.1,30.4z M152.2,49.4l3.7-11.4l0.4-2.7l0.4,2.7
	l3.6,11.4H152.2z"/>
<path class="st0" d="M129.9,29.8c-6.6,0-11.8,3.3-11.8,16c0,12.8,4.9,15.6,11.8,15.6c6.8,0,11.7-2.8,11.7-15.6
	C141.6,33.1,136.7,29.8,129.9,29.8z M129.9,57.5c-5.6,0-6.9-4.7-6.9-11.8c0-7.5,1.5-12.1,6.9-12.1c5.5,0,6.9,4.6,6.9,12.1
	C136.8,52.8,135.5,57.5,129.9,57.5z"/>
<polygon class="st0" points="172.9,30.4 179.3,30.4 189.3,51.4 190.5,55.7 190.2,51.3 190.2,30.4 194.8,30.4 194.8,60.8 188.8,60.8 
	178.6,39.6 177.2,35.2 177.5,39.6 177.5,60.8 172.9,60.8 "/>
<polygon class="st0" points="202.2,30.4 208.6,30.4 218.6,51.4 219.8,55.7 219.5,51.3 219.5,30.4 224.1,30.4 224.1,60.8 218.1,60.8 
	207.9,39.6 206.4,35.2 206.8,39.6 206.8,60.8 202.2,60.8 "/>
<polygon class="st0" points="231.5,30.4 248.2,30.4 248.2,34.4 236.1,34.4 236.1,43.1 247.1,43.1 247.1,47 236.1,47 236.1,56.6 
	248.6,56.6 248.6,60.8 231.5,60.8 "/>
<path class="st0" d="M254.2,49.7V30.4h4.7v19.2c0,6.1,1,7.6,5,7.6c1.4,0,2.9-0.4,3.8-0.7l3.3-1.2V30.4h4.6v25.5
	c0,1.6,0.3,4.9,0.3,4.9h-3.3c-0.4-0.5-0.7-1.2-1.1-2l-4,1.7c-1.2,0.5-3.1,1-4.7,1C256,61.4,254.2,58.1,254.2,49.7z"/>
<polygon class="st0" points="284.6,30.4 291.4,30.4 297.6,52.7 298.2,56.4 298.8,52.7 304.8,30.4 311.4,30.4 313.9,60.8 309.1,60.8 
	307.5,39.6 307.3,34.8 306.5,39.6 300.5,60.8 295.5,60.8 289.6,39.6 288.7,34.8 288.5,39.6 286.9,60.8 282.1,60.8 "/>
<path d="M106.8,30.4v24.1c0,4.7-2.4,5.8-5.1,7l1.4,3.5c4-1.3,8.4-2.9,8.4-10V30.4H106.8z"/>
<g>
	<path class="st1" d="M109.5,72.5h1.4l3.8,11.2h-1.5l-1-3.1H108l-1,3.1h-1.3L109.5,72.5z M111.8,79.6l-1.6-4.8l-0.1-0.8l-0.1,0.8
		l-1.6,4.8H111.8z"/>
	<path class="st1" d="M116.2,77.2c0-0.6-0.1-1.7-0.1-1.7h0.9c0.1,0.2,0.2,0.4,0.4,0.8l1.4-0.7c0.4-0.2,0.8-0.3,1.3-0.3
		c1.3,0,2.1,0.6,2.1,2.4v5.9h-1.3v-5.4c0-1.3-0.2-1.7-1.2-1.7c-0.5,0-0.7,0.1-0.7,0.1l-1.6,0.6v6.4h-1.2V77.2z"/>
	<path class="st1" d="M124,84.9c0-1.1,0.7-1.6,0.7-1.6c-0.6-0.5-0.6-1.1-0.4-1.3l0.9-1.4c0,0-1-0.6-1-2.2c0-2,1.5-2.9,3.1-2.9
		c0.7,0,1.4,0.2,1.4,0.2h2.2v0.7c-0.3,0.1-0.7,0.2-1.2,0.3c0.3,0.3,0.7,1,0.7,1.6c0,2.2-1.5,2.9-3.1,2.9c-0.8,0-1.2-0.2-1.2-0.2
		l-0.5,1.1c-0.1,0.3,0.1,0.5,0.6,0.5h2.9c0.4,0,1.8,0,1.8,2.1v0.2c0,1.1-0.8,2.5-3.4,2.5C124.7,87.3,124,86.2,124,84.9z M129.7,84.7
		c0-1.1-0.5-1.1-0.8-1.1h-3.3c0,0-0.4,0.3-0.4,1.1c0,0.6,0.2,1.5,2.2,1.5C129.2,86.3,129.7,85.4,129.7,84.7z M129.1,78.2
		c0-1.1-0.5-1.9-1.7-1.9c-1.4,0-1.8,0.8-1.8,1.9c0,1.2,0.4,1.9,1.7,1.9C128.7,80.1,129.1,79.4,129.1,78.2z"/>
	<path class="st1" d="M132.4,79.7c0-3.9,1.9-4.4,3.1-4.4c1.3,0,3.1,0.5,3.1,3.5v1h-4.9c0,2.3,0.7,2.9,1.9,2.9s2.5-0.6,2.5-0.6l0.4,1
		c0,0-1.3,0.7-3.1,0.7C134.2,83.9,132.4,83.5,132.4,79.7z M137.4,78.9c0-1.8-0.7-2.5-1.8-2.5c-1.1,0-1.8,0.7-1.9,2.5H137.4z"/>
	<path class="st1" d="M139.8,75.6h1.4L143,82l0.1,0.6l0.1-0.6l1.6-6.4h1.3l1.8,6.4l0.1,0.5l0.1-0.5l1.6-6.4h1.3l-2.1,8.1h-1.5
		l-1.8-6.1l-0.1-0.5l-0.1,0.5l-1.5,6.1h-1.5L139.8,75.6z"/>
	<path class="st1" d="M152.1,81.3c0-1.5,0.6-2.2,1.8-2.2l2.7-0.2v-1c0-1.1-0.3-1.4-1.4-1.4c-0.9,0-1.8,0.3-2.4,0.8l-0.5-1
		c0.8-0.6,1.9-0.9,2.9-0.9c2.1,0,2.6,0.9,2.6,2.6v4c0,0.6,0.1,1.7,0.1,1.7h-0.8c-0.1-0.2-0.2-0.3-0.3-0.5c-0.4,0.3-1.1,0.7-2.1,0.7
		C152.7,83.9,152.1,82.6,152.1,81.3z M156.7,82.3v-2.5l-2.3,0.3c-0.8,0.1-0.9,0.3-0.9,1.2c0,0.7,0.3,1.6,1.6,1.6
		C155.9,82.8,156.4,82.5,156.7,82.3z"/>
	<path class="st1" d="M160.2,77.2c0-0.6-0.1-1.7-0.1-1.7h0.9c0.1,0.2,0.2,0.4,0.4,0.8l1.4-0.7c0.4-0.2,0.8-0.3,1.3-0.3
		c1.3,0,2.1,0.6,2.1,2.4v5.9H165v-5.4c0-1.3-0.2-1.7-1.2-1.7c-0.5,0-0.7,0.1-0.7,0.1l-1.6,0.6v6.4h-1.2V77.2z"/>
	<path class="st1" d="M168.2,79.7c0-3.7,1.9-4.3,3.3-4.3c0.8,0,1.4,0.3,1.8,0.6v-4.1l1.3-0.3V82c0,0.6,0.1,1.7,0.1,1.7h-0.9
		c-0.1-0.2-0.2-0.4-0.3-0.6l-1.8,0.7c-0.3,0.1-0.6,0.2-0.9,0.2C169.4,83.9,168.2,82.8,168.2,79.7z M171.7,82.7l1.6-0.5v-5.2
		c-0.3-0.2-0.7-0.6-1.6-0.6c-1.3,0-2.2,0.7-2.2,3.2c0,1,0.1,3.1,1.4,3.1C171.3,82.8,171.7,82.7,171.7,82.7z"/>
	<path class="st1" d="M177.5,81.7v-5h-1.2v-1.1h1.2v-2l1.2-0.2v2.3h1.9v1.1h-1.9v5c0,0.9,0.1,1.2,0.8,1.2c0.5,0,1.1-0.2,1.1-0.2
		l0.3,0.9c0,0-0.9,0.4-1.6,0.4C177.9,83.9,177.5,83.5,177.5,81.7z"/>
	<path class="st1" d="M181.9,79.7c0-3.9,1.9-4.4,3.1-4.4c1.3,0,3.1,0.5,3.1,3.5v1h-4.9c0,2.3,0.7,2.9,1.9,2.9s2.5-0.6,2.5-0.6l0.4,1
		c0,0-1.3,0.7-3.1,0.7C183.6,83.9,181.9,83.5,181.9,79.7z M186.8,78.9c0-1.8-0.7-2.5-1.8-2.5c-1.1,0-1.8,0.7-1.9,2.5H186.8z"/>
	<path class="st1" d="M194.2,72.5h1.3v11.2h-1.3V72.5z"/>
	<path class="st1" d="M198.2,77.2c0-0.6-0.1-1.7-0.1-1.7h0.9c0.1,0.2,0.2,0.4,0.4,0.8l1.4-0.7c0.4-0.2,0.8-0.3,1.3-0.3
		c1.3,0,2.1,0.6,2.1,2.4v5.9h-1.3v-5.4c0-1.3-0.2-1.7-1.2-1.7c-0.5,0-0.7,0.1-0.7,0.1l-1.6,0.6v6.4h-1.2V77.2z"/>
	<path class="st1" d="M206.9,76.6h-1.2v-1.1h1.2v-1.8c0-1.5,0.7-2.2,1.9-2.2c0.9,0,1.7,0.3,1.7,0.3l-0.3,0.9c0,0-0.6-0.2-1.2-0.2
		c-0.6,0-0.9,0.4-0.9,1.3v1.7h2v1.1h-2v7.1h-1.2V76.6z"/>
	<path class="st1" d="M211,79.7c0-3.7,2.1-4.4,3.4-4.4c1.3,0,3.4,0.6,3.4,4.4c0,3.6-2,4.2-3.4,4.2C213,83.9,211,83.3,211,79.7z
		 M216.5,79.7c0-2.5-0.9-3.3-2.2-3.3c-1.2,0-2,0.8-2,3.3c0,2.5,0.9,3.1,2.2,3.1C215.6,82.9,216.5,82.2,216.5,79.7z"/>
	<path class="st1" d="M219.8,77.1c0-0.4-0.1-1.5-0.1-1.5h0.9c0.1,0.3,0.3,0.7,0.3,1l1.1-0.9c0.3-0.2,0.6-0.4,1.1-0.4
		c0.3,0,0.6,0.1,0.8,0.2l-0.4,1.2c-0.2,0-0.3-0.1-0.6-0.1c-0.3,0-0.6,0.2-0.6,0.2l-1.3,0.8v6h-1.2V77.1z"/>
	<path class="st1" d="M225.4,77.2c0-0.6-0.1-1.7-0.1-1.7h0.9c0.1,0.2,0.3,0.5,0.4,0.8l1.4-0.7c0.3-0.2,0.8-0.3,1.2-0.3
		c0.8,0,1.4,0.2,1.8,1l1.4-0.7c0.3-0.2,0.8-0.3,1.2-0.3c1.3,0,2.1,0.6,2.1,2.5v5.9h-1.2v-5.6c0-1-0.1-1.6-1-1.6
		c-0.4,0-0.6,0.1-0.8,0.2l-1.4,0.6v6.4h-1.3v-5.6c0-1-0.1-1.6-0.9-1.6c-0.3,0-0.6,0.1-0.8,0.2l-1.6,0.6v6.4h-1.2V77.2z"/>
	<path class="st1" d="M237.5,81.3c0-1.5,0.6-2.2,1.8-2.2l2.7-0.2v-1c0-1.1-0.3-1.4-1.4-1.4c-0.9,0-1.8,0.3-2.4,0.8l-0.5-1
		c0.8-0.6,1.9-0.9,2.9-0.9c2.1,0,2.6,0.9,2.6,2.6v4c0,0.6,0.1,1.7,0.1,1.7h-0.8c-0.1-0.2-0.2-0.3-0.3-0.5c-0.4,0.3-1.1,0.7-2.1,0.7
		C238.1,83.9,237.5,82.6,237.5,81.3z M242,82.3v-2.5l-2.3,0.3c-0.8,0.1-0.9,0.3-0.9,1.2c0,0.7,0.3,1.6,1.6,1.6
		C241.2,82.8,241.8,82.5,242,82.3z"/>
	<path class="st1" d="M246.1,81.7v-5h-1.2v-1.1h1.2v-2l1.2-0.2v2.3h1.9v1.1h-1.9v5c0,0.9,0.1,1.2,0.8,1.2c0.5,0,1.1-0.2,1.1-0.2
		l0.3,0.9c0,0-0.9,0.4-1.6,0.4C246.6,83.9,246.1,83.5,246.1,81.7z"/>
	<path class="st1" d="M250.8,73.3c0-0.5,0.4-0.9,0.8-0.9c0.5,0,0.9,0.4,0.9,0.9c0,0.5-0.4,0.9-0.9,0.9
		C251.3,74.1,250.8,73.7,250.8,73.3z M251.1,75.6h1.2v8.1h-1.2V75.6z"/>
	<path class="st1" d="M254.7,71.8l1.2-0.3v6.9l0,0.5l3.2-3.3h1.6l-3.6,3.6l3.8,4.5h-1.7l-3.4-4.2l0,0.5v3.7h-1.2V71.8z"/>
</g>
</svg>
