<svg id="Ebene_1" data-name="Ebene 1" xmlns="http://www.w3.org/2000/svg" viewBox="0 0 283.47 57.66"><defs><style>.cls-1{fill:#70be44;}.cls-2{fill:#1a171b;}</style></defs><path class="cls-1" d="M76.44,49.75V42.43h1.39v7.32c0,2.48.43,3.11,2.16,3.11a5.22,5.22,0,0,0,1.52-.28L83,52V42.43h1.35v9.73c0,.63.1,1.77.1,1.77h-1a3.26,3.26,0,0,1-.37-.77l-1.62.65a5.2,5.2,0,0,1-1.72.35C77.18,54.16,76.44,52.91,76.44,49.75Z"/><path class="cls-1" d="M87.24,47.3c0-.59-.1-1.73-.1-1.73H88a3.44,3.44,0,0,1,.37.81l1.47-.74a2.89,2.89,0,0,1,1.3-.3c1.34,0,2.21.65,2.21,2.49v6.1H92.08v-5.6c0-1.34-.21-1.75-1.2-1.75a1.93,1.93,0,0,0-.75.13l-1.62.67v6.55H87.24Z"/><path class="cls-1" d="M95.71,43.22a.88.88,0,1,1,1.75,0,.88.88,0,1,1-1.75,0Zm.23,2.35h1.27v8.36H95.94Z"/><path class="cls-1" d="M99,45.57h1.42l2.18,6.61.11.53.12-.53,1.89-6.61H106l-2.61,8.36h-1.51Z"/><path class="cls-1" d="M107.12,49.84c0-4,2-4.5,3.19-4.5s3.2.47,3.2,3.61V50h-5.07c.06,2.41.7,2.94,1.94,2.94a7.27,7.27,0,0,0,2.54-.58l.42,1a6.82,6.82,0,0,1-3.21.77C108.9,54.16,107.12,53.75,107.12,49.84Zm5.07-.89c0-1.87-.75-2.53-1.81-2.53s-1.88.76-1.94,2.53Z"/><path class="cls-1" d="M115.75,47.11c0-.37-.11-1.54-.11-1.54h.92a5.59,5.59,0,0,1,.35,1.07l1.11-.9a1.67,1.67,0,0,1,1.17-.4,2.06,2.06,0,0,1,.82.18l-.39,1.22a2,2,0,0,0-.6-.1,1.37,1.37,0,0,0-.65.2l-1.36.87v6.22h-1.26Z"/><path class="cls-1" d="M120.89,53.36l.42-1a6.89,6.89,0,0,0,2.54.62c.77,0,1.65-.13,1.65-1.17a1.19,1.19,0,0,0-.68-1.1c-.62-.3-1.51-.62-2.33-1a2.08,2.08,0,0,1-1.3-2.1c0-1.37,1-2.24,2.63-2.24a5.5,5.5,0,0,1,2.69.72l-.42,1a4.65,4.65,0,0,0-2.27-.6c-1,0-1.43.4-1.43,1.12a1,1,0,0,0,.49.88c.72.42,1.69.7,2.64,1.19a2.13,2.13,0,0,1,1.27,2.12c0,1.66-1.15,2.37-2.69,2.37A6.67,6.67,0,0,1,120.89,53.36Z"/><path class="cls-1" d="M128.81,43.22a.88.88,0,1,1,1.76,0,.88.88,0,1,1-1.76,0Zm.24,2.35h1.27v8.36h-1.27Z"/><path class="cls-1" d="M133.49,51.84V46.68h-1.27V45.57h1.27V43.48l1.27-.25v2.34h2v1.11h-2v5.18c0,1,.12,1.19.79,1.19a4.86,4.86,0,0,0,1.15-.22l.3.92a5.56,5.56,0,0,1-1.65.38C134,54.13,133.49,53.73,133.49,51.84Z"/><path class="cls-1" d="M137.67,57.36l.3-1a4.64,4.64,0,0,0,1.12.17,1.35,1.35,0,0,0,1.37-1.07l.47-1.57-3-8.36h1.44l2.12,6.14.1.53.1-.53,1.92-6.14h1.27L141.54,56a2.07,2.07,0,0,1-2.13,1.62A5.87,5.87,0,0,1,137.67,57.36Z"/><path class="cls-1" d="M150.37,49.84c0-3.85,2.14-4.5,3.49-4.5s3.51.65,3.51,4.5c0,3.67-2.07,4.32-3.51,4.32S150.37,53.51,150.37,49.84Zm5.66,0c0-2.53-.9-3.4-2.22-3.4s-2.11.87-2.11,3.4.92,3.22,2.23,3.22C155.06,53.06,156,52.38,156,49.84Z"/><path class="cls-1" d="M160,46.68h-1.25V45.57H160V43.73c0-1.53.72-2.3,1.91-2.3a5.14,5.14,0,0,1,1.74.35l-.3.9a5.2,5.2,0,0,0-1.19-.16c-.65,0-.89.41-.89,1.35v1.7h2v1.11h-2v7.25H160Z"/><path class="cls-1" d="M172.19,42.43h1.44l3.88,11.5H176l-1-3.14h-4.28l-1,3.14h-1.36Zm2.37,7.24-1.62-5-.13-.82-.1.82-1.67,5Z"/><path class="cls-1" d="M179.23,47.35c0-.64-.1-1.78-.1-1.78H180a3.47,3.47,0,0,1,.29.61l1.55-.61a3.1,3.1,0,0,1,1.12-.23c1.45,0,2.64,1.12,2.64,4.41,0,3.74-2,4.41-3.32,4.41a3.28,3.28,0,0,1-1.79-.51v3.72l-1.27.29Zm5,2.4c0-1.63-.35-3.24-1.44-3.24a2.5,2.5,0,0,0-.85.15l-1.48.48v5.3a2.18,2.18,0,0,0,1.6.54C183.37,53,184.27,52.24,184.27,49.75Z"/><path class="cls-1" d="M187.93,47.35c0-.64-.1-1.78-.1-1.78h.89a4.39,4.39,0,0,1,.28.61l1.56-.61a3,3,0,0,1,1.12-.23c1.45,0,2.64,1.12,2.64,4.41,0,3.74-2,4.41-3.33,4.41a3.34,3.34,0,0,1-1.79-.51v3.72l-1.27.29Zm5,2.4c0-1.63-.35-3.24-1.44-3.24a2.5,2.5,0,0,0-.85.15l-1.49.48v5.3a2.23,2.23,0,0,0,1.61.54C192.07,53,193,52.24,193,49.75Z"/><path class="cls-1" d="M196.64,52V41.73l1.27-.3V51.86c0,.82.07,1.19.53,1.19a2.83,2.83,0,0,0,.82-.14l.32.87a3.3,3.3,0,0,1-1.39.35C197,54.13,196.64,53.53,196.64,52Z"/><path class="cls-1" d="M201,43.22a.88.88,0,1,1,1.75,0,.88.88,0,1,1-1.75,0Zm.23,2.35h1.27v8.36h-1.27Z"/><path class="cls-1" d="M204.76,49.84c0-4,2-4.5,3.19-4.5s3.19.47,3.19,3.61V50h-5.06c0,2.41.7,2.94,1.94,2.94a7.27,7.27,0,0,0,2.54-.58l.42,1a6.87,6.87,0,0,1-3.21.77C206.53,54.16,204.76,53.75,204.76,49.84Zm5.06-.89c0-1.87-.75-2.53-1.8-2.53s-1.89.76-1.94,2.53Z"/><path class="cls-1" d="M213.06,49.77c0-3.81,1.93-4.43,3.38-4.43a3.3,3.3,0,0,1,1.84.6V41.73l1.28-.3V52.16c0,.63.11,1.77.11,1.77h-.91a3.64,3.64,0,0,1-.33-.62l-1.82.69a2.78,2.78,0,0,1-.92.16C214.25,54.16,213.06,53.05,213.06,49.77Zm3.57,3.11,1.65-.49v-5.3a2.4,2.4,0,0,0-1.64-.58c-1.32,0-2.26.72-2.26,3.26,0,1,.1,3.22,1.43,3.22A4,4,0,0,0,216.63,52.88Z"/><path class="cls-1" d="M225.66,53.3l.44-1.14a6.87,6.87,0,0,0,3,.73c1.42,0,2.19-.63,2.19-1.9a1.85,1.85,0,0,0-1.11-1.85c-.9-.42-1.6-.64-2.59-1.12a2.77,2.77,0,0,1-1.72-2.81,2.93,2.93,0,0,1,3.24-3,8.27,8.27,0,0,1,3.31.8L232,44.06a7,7,0,0,0-2.8-.66,1.7,1.7,0,0,0-1.9,1.82,1.6,1.6,0,0,0,.85,1.52c.89.49,1.63.71,2.69,1.19a3.07,3.07,0,0,1,2,3.08c0,2-1.42,3.15-3.48,3.15A8.26,8.26,0,0,1,225.66,53.3Z"/><path class="cls-1" d="M234.4,49.67c0-3.91,2.13-4.33,3.2-4.33a6.21,6.21,0,0,1,2.43.52l-.43,1a5.2,5.2,0,0,0-1.95-.37c-1.17,0-1.93.87-1.93,3.23s.59,3.26,1.86,3.26a5.32,5.32,0,0,0,2.17-.45l.4,1a5.82,5.82,0,0,1-2.81.67C236,54.16,234.4,53.58,234.4,49.67Z"/><path class="cls-1" d="M241.79,43.22a.88.88,0,1,1,1.76,0,.88.88,0,1,1-1.76,0Zm.23,2.35h1.27v8.36H242Z"/><path class="cls-1" d="M245.55,49.84c0-4,1.95-4.5,3.19-4.5s3.19.47,3.19,3.61V50h-5.06c0,2.41.7,2.94,1.94,2.94a7.34,7.34,0,0,0,2.54-.58l.42,1a6.87,6.87,0,0,1-3.21.77C247.32,54.16,245.55,53.75,245.55,49.84Zm5.06-.89c0-1.87-.75-2.53-1.8-2.53s-1.89.76-1.94,2.53Z"/><path class="cls-1" d="M254.17,47.3c0-.59-.1-1.73-.1-1.73H255a3.46,3.46,0,0,1,.36.81l1.48-.74a2.86,2.86,0,0,1,1.3-.3c1.33,0,2.2.65,2.2,2.49v6.1H259v-5.6c0-1.34-.22-1.75-1.21-1.75a2,2,0,0,0-.75.13l-1.62.67v6.55h-1.27Z"/><path class="cls-1" d="M262.46,49.67c0-3.91,2.12-4.33,3.19-4.33a6.27,6.27,0,0,1,2.44.52l-.43,1a5.31,5.31,0,0,0-2-.37c-1.17,0-1.92.87-1.92,3.23s.58,3.26,1.85,3.26a5.33,5.33,0,0,0,2.18-.45l.4,1a5.82,5.82,0,0,1-2.81.67C264.06,54.16,262.46,53.58,262.46,49.67Z"/><path class="cls-1" d="M269.66,49.84c0-4,2-4.5,3.19-4.5s3.2.47,3.2,3.61V50H271c0,2.41.7,2.94,1.94,2.94a7.27,7.27,0,0,0,2.54-.58l.42,1a6.87,6.87,0,0,1-3.21.77C271.43,54.16,269.66,53.75,269.66,49.84Zm5.07-.89c0-1.87-.76-2.53-1.81-2.53S271,47.18,271,49Z"/><path class="cls-1" d="M277.57,53.36l.41-1a7,7,0,0,0,2.54.62c.77,0,1.66-.13,1.66-1.17a1.18,1.18,0,0,0-.69-1.1c-.62-.3-1.5-.62-2.32-1a2.07,2.07,0,0,1-1.3-2.1c0-1.37,1-2.24,2.62-2.24a5.48,5.48,0,0,1,2.69.72l-.42,1a4.6,4.6,0,0,0-2.27-.6c-1,0-1.42.4-1.42,1.12a1,1,0,0,0,.48.88c.72.42,1.69.7,2.65,1.19a2.14,2.14,0,0,1,1.27,2.12c0,1.66-1.16,2.37-2.7,2.37A6.61,6.61,0,0,1,277.57,53.36Z"/><polygon class="cls-2" points="0 0.62 15.99 0.62 15.99 4.64 4.64 4.64 4.64 13.91 15.33 13.91 15.33 17.85 4.64 17.85 4.64 31.01 0 31.01 0 0.62"/><polygon class="cls-2" points="22.04 0.62 26.68 0.62 26.68 13.12 37.76 13.12 37.76 0.62 42.4 0.62 42.4 31.01 37.76 31.01 37.76 16.92 26.68 16.92 26.68 31.01 22.04 31.01 22.04 0.62"/><polygon class="cls-1" points="57.2 0.62 57.2 14.76 57.2 39.75 57.2 53.9 61.53 53.9 61.53 39.75 61.53 14.76 61.53 0.62 57.2 0.62"/><path class="cls-2" d="M128.62.62h-5.08L113.6,31h4.64l2.42-7.82h10.25L133.39,31h5.16Zm-6.89,19,3.7-11.4.4-2.69.44,2.69,3.58,11.4Z"/><path class="cls-2" d="M99.46,0C92.88,0,87.71,3.27,87.71,16s4.91,15.64,11.75,15.64S111.17,28.8,111.17,16s-5-16-11.71-16m0,27.74c-5.6,0-6.93-4.68-6.93-11.75,0-7.51,1.5-12.1,6.93-12.1s6.9,4.59,6.9,12.1c0,7.07-1.33,11.75-6.9,11.75"/><polygon class="cls-2" points="142.41 0.62 148.86 0.62 158.8 21.64 159.99 25.88 159.72 21.51 159.72 0.62 164.36 0.62 164.36 31.01 158.36 31.01 148.11 9.81 146.69 5.39 147 9.85 147 31.01 142.41 31.01 142.41 0.62"/><polygon class="cls-2" points="171.69 0.62 178.14 0.62 188.08 21.64 189.27 25.88 189.01 21.51 189.01 0.62 193.65 0.62 193.65 31.01 187.64 31.01 177.39 9.81 175.98 5.39 176.29 9.85 176.29 31.01 171.69 31.01 171.69 0.62"/><polygon class="cls-2" points="200.98 0.62 217.67 0.62 217.67 4.64 205.61 4.64 205.61 13.3 216.57 13.3 216.57 17.23 205.61 17.23 205.61 26.77 218.11 26.77 218.11 31.01 200.98 31.01 200.98 0.62"/><path class="cls-2" d="M223.72,19.88V.62h4.69V19.79c0,6.05,1,7.55,5,7.55a12,12,0,0,0,3.84-.7l3.32-1.24V.62h4.63V26.06c0,1.59.26,5,.26,5h-3.31a11.32,11.32,0,0,1-1.06-2l-4,1.67a13,13,0,0,1-4.73,1c-6.8,0-8.61-3.36-8.61-11.75"/><polygon class="cls-2" points="254.07 0.62 260.91 0.62 267.05 22.88 267.67 26.64 268.29 22.88 274.25 0.62 280.88 0.62 283.35 31.01 278.58 31.01 276.94 9.85 276.81 5.04 276.02 9.85 269.97 31.01 265.02 31.01 259.06 9.85 258.17 5.04 258.04 9.85 256.37 31.01 251.64 31.01 254.07 0.62"/><path class="cls-2" d="M76.34.62V24.67c0,4.69-2.36,5.76-5.1,7l1.41,3.5c4-1.29,8.37-2.86,8.37-10V.62Z"/></svg>